<svg id="svg" version="1.1" xmlns="http://www.w3.org/2000/svg" xmlns:xlink="http://www.w3.org/1999/xlink" width="400" height="393.36349924585215" viewBox="0, 0, 400,393.36349924585215"><g id="svgg"><path id="path0" d="M192.292 179.972 C 192.205 180.112,191.667 180.345,191.098 180.488 C 188.921 181.034,188.780 181.499,188.772 188.163 L 188.764 194.291 182.965 194.148 C 179.243 194.056,177.165 194.146,177.165 194.400 C 177.165 194.618,176.744 194.902,176.228 195.032 C 174.938 195.355,174.814 196.105,174.814 203.543 C 174.814 210.982,174.938 211.731,176.228 212.055 C 176.744 212.184,177.165 212.448,177.165 212.641 C 177.165 212.834,179.454 212.992,182.251 212.992 C 189.154 212.992,188.583 212.463,188.583 218.852 C 188.583 224.414,188.978 225.984,190.377 225.984 C 190.689 225.984,190.945 226.140,190.945 226.330 C 190.945 226.520,194.045 226.681,197.835 226.689 C 201.731 226.696,204.724 226.546,204.724 226.343 C 204.724 226.146,204.990 225.984,205.315 225.984 C 205.640 225.984,205.906 225.733,205.906 225.427 C 205.906 225.120,206.127 224.795,206.398 224.705 C 206.754 224.587,206.925 222.943,207.017 218.767 L 207.145 212.992 212.407 212.992 C 215.491 212.992,217.771 212.829,217.913 212.598 C 218.047 212.382,218.576 212.205,219.089 212.205 C 220.853 212.205,221.260 210.497,221.260 203.089 C 221.260 199.441,221.103 196.457,220.912 196.457 C 220.721 196.457,220.472 196.102,220.358 195.669 C 220.219 195.137,219.821 194.882,219.131 194.882 C 218.570 194.882,218.110 194.680,218.110 194.433 C 218.110 194.105,216.540 194.059,212.265 194.263 L 206.419 194.541 206.608 188.648 C 206.803 182.592,206.825 182.715,205.223 180.926 C 204.566 180.192,192.697 179.316,192.292 179.972 M201.497 185.537 C 201.736 185.824,201.924 188.251,201.942 191.286 C 201.993 199.674,201.925 199.606,210.199 199.606 L 215.748 199.606 215.748 203.543 L 215.748 207.480 209.547 207.486 C 201.526 207.494,202.194 206.814,202.028 215.143 L 201.891 222.047 197.993 222.047 C 195.152 222.047,194.087 221.914,194.066 221.555 C 194.051 221.284,194.062 218.538,194.092 215.453 C 194.128 211.711,194.006 209.843,193.727 209.843 C 193.496 209.843,193.307 209.494,193.307 209.069 C 193.307 207.753,192.026 207.480,185.853 207.480 L 179.921 207.480 179.921 203.543 L 179.921 199.606 182.092 199.606 C 183.286 199.606,184.615 199.387,185.045 199.118 C 185.667 198.729,185.986 198.729,186.609 199.118 C 187.523 199.689,189.093 199.753,190.064 199.259 C 190.440 199.068,191.280 198.754,191.929 198.562 C 193.031 198.236,193.118 198.070,193.232 196.067 C 193.299 194.887,193.502 193.739,193.682 193.516 C 193.863 193.293,194.035 191.446,194.065 189.411 C 194.094 187.377,194.212 185.561,194.327 185.376 C 194.668 184.824,201.024 184.967,201.497 185.537 " stroke="none" fill="#d22f27" fill-rule="evenodd"></path><path id="path1" d="M179.759 136.952 C 179.644 137.138,178.511 137.384,177.240 137.500 C 175.197 137.685,173.423 138.298,172.835 139.022 C 172.726 139.155,172.239 139.388,171.752 139.540 C 171.265 139.692,170.866 139.963,170.866 140.141 C 170.866 140.320,170.461 140.568,169.965 140.692 C 168.887 140.962,164.567 145.083,164.567 145.841 C 164.567 146.133,164.301 146.474,163.976 146.599 C 163.652 146.724,163.386 147.167,163.386 147.583 C 163.386 148.000,163.130 148.439,162.817 148.559 C 162.505 148.679,162.034 149.495,161.771 150.373 C 161.508 151.250,161.152 151.969,160.981 151.969 C 160.809 151.969,160.548 153.035,160.401 154.340 C 160.253 155.644,159.979 156.806,159.791 156.922 C 159.343 157.198,159.344 166.142,159.792 166.142 C 159.980 166.142,160.257 167.382,160.406 168.898 C 160.555 170.413,160.821 171.654,160.997 171.654 C 161.173 171.654,161.430 172.362,161.569 173.228 C 161.707 174.094,161.995 174.803,162.209 174.803 C 162.423 174.803,162.598 175.069,162.598 175.394 C 162.598 175.719,162.756 175.984,162.949 175.984 C 163.143 175.984,163.420 176.462,163.567 177.047 C 163.714 177.631,164.265 178.509,164.791 178.997 C 165.317 179.485,165.748 180.048,165.748 180.249 C 165.748 180.864,171.794 186.877,172.700 187.163 C 173.167 187.311,173.649 187.691,173.770 188.007 C 173.892 188.324,174.262 188.583,174.594 188.583 C 174.926 188.583,175.197 188.756,175.197 188.969 C 175.197 189.181,175.627 189.463,176.153 189.595 C 176.678 189.727,177.204 190.085,177.321 190.390 C 177.439 190.695,177.806 190.945,178.137 190.945 C 178.469 190.945,178.740 191.119,178.740 191.331 C 178.740 191.543,179.183 191.828,179.724 191.964 C 180.266 192.100,180.709 192.369,180.709 192.562 C 180.709 192.755,180.974 192.913,181.299 192.913 C 181.624 192.913,181.890 193.083,181.890 193.291 C 181.890 194.591,188.664 194.862,188.909 193.571 C 189.147 192.322,188.612 191.007,187.755 190.735 C 187.302 190.591,186.579 190.122,186.150 189.693 C 185.721 189.264,184.853 188.733,184.221 188.513 C 183.588 188.292,183.071 187.966,183.071 187.788 C 183.071 187.610,182.539 187.347,181.890 187.205 C 181.240 187.062,180.709 186.786,180.709 186.590 C 180.709 186.395,180.279 186.128,179.753 185.996 C 179.227 185.864,178.701 185.506,178.584 185.201 C 178.467 184.895,178.164 184.646,177.912 184.646 C 177.659 184.646,177.066 184.228,176.593 183.718 C 176.120 183.208,175.539 182.721,175.303 182.635 C 174.451 182.328,169.755 177.613,169.500 176.808 C 169.356 176.355,169.087 175.984,168.902 175.984 C 168.718 175.984,168.450 175.453,168.307 174.803 C 168.164 174.154,167.888 173.622,167.693 173.622 C 167.498 173.622,167.227 173.179,167.091 172.638 C 166.955 172.096,166.697 171.654,166.517 171.654 C 166.337 171.654,166.066 170.812,165.914 169.783 C 165.763 168.755,165.456 167.796,165.233 167.652 C 164.663 167.285,164.627 156.359,165.195 155.990 C 165.432 155.835,165.736 155.014,165.870 154.166 C 166.004 153.317,166.273 152.520,166.468 152.394 C 166.663 152.268,166.950 151.758,167.106 151.259 C 167.261 150.761,167.905 149.825,168.537 149.179 C 169.168 148.533,169.685 147.745,169.685 147.427 C 169.685 147.110,169.945 146.850,170.262 146.850 C 170.579 146.850,171.380 146.321,172.042 145.675 C 172.703 145.028,173.684 144.389,174.221 144.254 C 174.758 144.119,175.197 143.865,175.197 143.689 C 175.197 143.514,175.728 143.253,176.378 143.110 C 177.028 142.968,177.559 142.688,177.559 142.488 C 177.559 142.289,179.242 142.126,181.299 142.126 C 183.530 142.126,185.039 142.285,185.039 142.520 C 185.039 142.736,185.305 142.913,185.630 142.913 C 185.955 142.913,186.224 143.135,186.227 143.406 C 186.236 144.006,187.935 145.669,188.540 145.669 C 188.780 145.669,188.976 145.843,188.976 146.055 C 188.976 146.268,189.419 146.553,189.961 146.689 C 190.502 146.825,190.945 147.094,190.945 147.287 C 190.945 147.962,193.687 147.651,194.449 146.889 C 195.865 145.474,196.023 141.732,194.667 141.732 C 194.352 141.732,194.094 141.591,194.094 141.418 C 194.094 141.245,193.391 140.669,192.530 140.138 C 191.670 139.607,190.961 139.040,190.955 138.878 C 190.950 138.716,190.251 138.583,189.403 138.583 C 188.555 138.583,187.796 138.388,187.717 138.150 C 187.637 137.912,186.733 137.623,185.706 137.507 C 184.680 137.392,183.745 137.143,183.629 136.956 C 183.356 136.513,180.032 136.510,179.759 136.952 M212.205 136.973 C 212.205 137.170,210.699 137.456,208.858 137.610 C 207.018 137.763,205.512 138.045,205.512 138.236 C 205.512 138.426,205.246 138.583,204.921 138.583 C 204.596 138.583,204.331 138.748,204.331 138.950 C 204.331 139.152,203.956 139.436,203.497 139.582 C 199.793 140.757,198.647 144.652,201.229 147.293 C 202.345 148.435,205.512 148.981,205.512 148.031 C 205.512 147.815,205.687 147.638,205.901 147.638 C 206.393 147.638,211.024 142.987,211.024 142.493 C 211.024 141.880,216.715 142.061,217.967 142.714 C 218.587 143.038,219.405 143.303,219.783 143.305 C 220.162 143.306,220.472 143.484,220.472 143.701 C 220.472 143.917,220.915 144.094,221.457 144.094 C 222.069 144.094,222.441 144.318,222.441 144.685 C 222.441 145.010,222.640 145.276,222.883 145.276 C 223.418 145.276,227.737 149.658,228.079 150.548 C 228.212 150.896,228.482 151.181,228.677 151.181 C 228.873 151.181,229.144 151.875,229.280 152.723 C 229.415 153.571,229.748 154.339,230.019 154.429 C 230.390 154.553,230.512 156.382,230.512 161.811 C 230.512 167.240,230.390 169.070,230.019 169.193 C 229.748 169.283,229.415 170.051,229.280 170.899 C 229.144 171.747,228.898 172.441,228.733 172.441 C 228.567 172.441,228.320 172.887,228.183 173.431 C 227.912 174.511,227.347 175.287,225.098 177.666 C 224.286 178.526,223.622 179.473,223.622 179.772 C 223.622 180.071,223.358 180.315,223.035 180.315 C 222.712 180.315,221.698 181.112,220.781 182.087 C 219.864 183.061,218.888 183.858,218.612 183.858 C 218.336 183.858,218.110 184.032,218.110 184.244 C 218.110 184.457,217.680 184.739,217.154 184.871 C 216.629 185.002,216.103 185.360,215.986 185.665 C 215.869 185.971,215.501 186.220,215.170 186.220 C 214.838 186.220,214.567 186.394,214.567 186.607 C 214.567 186.819,214.137 187.101,213.611 187.233 C 213.085 187.365,212.560 187.722,212.442 188.028 C 212.325 188.333,211.958 188.583,211.627 188.583 C 211.295 188.583,211.024 188.741,211.024 188.934 C 211.024 189.127,210.581 189.396,210.039 189.532 C 209.498 189.668,209.055 189.938,209.055 190.134 C 209.055 190.329,208.542 190.601,207.914 190.739 C 206.763 190.992,206.316 191.788,206.305 193.602 C 206.300 194.419,206.476 194.488,208.563 194.486 C 211.083 194.484,213.780 193.865,213.780 193.289 C 213.780 193.082,214.045 192.913,214.370 192.913 C 214.695 192.913,214.961 192.740,214.961 192.527 C 214.961 192.315,215.391 192.033,215.916 191.901 C 216.442 191.769,216.968 191.411,217.085 191.106 C 217.202 190.801,217.639 190.551,218.056 190.551 C 218.472 190.551,218.915 190.285,219.040 189.961 C 219.165 189.636,219.538 189.370,219.870 189.370 C 220.201 189.370,220.472 189.193,220.472 188.976 C 220.472 188.760,220.711 188.583,221.003 188.583 C 221.296 188.583,222.185 188.007,222.981 187.303 C 225.859 184.758,229.528 181.160,229.528 180.884 C 229.528 180.729,229.963 180.198,230.496 179.705 C 231.028 179.211,231.579 178.349,231.720 177.789 C 231.860 177.230,232.119 176.772,232.295 176.772 C 232.471 176.772,232.740 176.196,232.892 175.492 C 233.045 174.788,233.331 174.110,233.528 173.984 C 233.725 173.858,233.996 173.061,234.130 172.212 C 234.264 171.364,234.552 170.553,234.770 170.410 C 234.987 170.268,235.248 168.718,235.350 166.965 C 235.451 165.213,235.689 163.780,235.877 163.780 C 236.066 163.780,236.220 162.717,236.220 161.417 C 236.220 160.118,236.070 159.055,235.885 159.055 C 235.701 159.055,235.438 157.606,235.301 155.835 C 235.165 154.063,234.895 152.513,234.702 152.390 C 234.509 152.266,234.226 151.590,234.073 150.886 C 233.921 150.182,233.652 149.606,233.476 149.606 C 233.300 149.606,233.045 149.163,232.909 148.622 C 232.773 148.081,232.488 147.638,232.276 147.638 C 232.064 147.638,231.886 147.416,231.881 147.146 C 231.872 146.619,228.636 142.913,228.185 142.913 C 228.037 142.913,227.525 142.502,227.048 141.998 C 226.571 141.495,225.871 140.969,225.492 140.829 C 225.113 140.690,224.803 140.407,224.803 140.201 C 224.803 139.995,224.272 139.710,223.622 139.567 C 222.972 139.424,222.440 139.189,222.438 139.044 C 222.432 138.500,220.199 137.729,218.012 137.514 C 216.767 137.392,215.748 137.140,215.748 136.953 C 215.748 136.767,214.951 136.614,213.976 136.614 C 213.002 136.614,212.205 136.775,212.205 136.973 M194.488 179.783 C 197.718 180.071,202.275 180.095,202.106 179.823 C 202.005 179.660,199.939 179.557,197.516 179.594 C 195.093 179.630,193.730 179.715,194.488 179.783 M227.379 217.984 C 226.738 218.091,225.941 218.485,225.607 218.861 C 225.273 219.236,224.690 219.658,224.311 219.798 C 223.932 219.939,223.622 220.237,223.622 220.460 C 223.622 220.683,223.356 220.866,223.031 220.866 C 222.707 220.866,222.441 221.052,222.441 221.279 C 222.441 221.506,221.998 222.101,221.458 222.602 C 220.917 223.104,220.363 224.070,220.227 224.749 C 220.091 225.428,219.825 225.984,219.636 225.984 C 219.446 225.984,219.291 227.667,219.291 229.724 C 219.291 231.781,219.449 233.465,219.641 233.465 C 221.558 233.465,220.061 237.488,217.947 238.019 C 217.387 238.159,216.929 238.418,216.929 238.594 C 216.929 238.770,216.398 239.031,215.748 239.173 C 215.098 239.316,214.567 239.582,214.567 239.764 C 214.567 239.946,214.035 240.212,213.386 240.354 C 212.736 240.497,212.205 240.756,212.205 240.931 C 212.205 241.105,211.230 241.370,210.039 241.518 C 208.848 241.667,207.874 241.936,207.874 242.116 C 207.874 242.295,206.811 242.566,205.512 242.717 C 204.213 242.867,203.150 243.132,203.150 243.304 C 203.150 243.476,201.554 243.743,199.604 243.898 C 197.653 244.052,195.960 244.337,195.840 244.530 C 195.558 244.987,176.378 244.991,176.378 244.535 C 176.378 244.344,174.872 244.062,173.031 243.909 C 171.191 243.756,169.685 243.480,169.685 243.296 C 169.685 243.112,168.888 242.842,167.913 242.696 C 166.939 242.550,166.142 242.273,166.142 242.081 C 166.142 241.889,165.915 241.732,165.639 241.732 C 164.552 241.732,163.873 240.399,164.580 239.654 C 164.934 239.281,165.430 238.976,165.683 238.976 C 165.935 238.976,166.142 238.813,166.142 238.614 C 166.142 238.415,166.673 238.135,167.323 237.992 C 167.972 237.849,168.504 237.570,168.504 237.370 C 168.504 237.171,168.932 237.008,169.455 237.008 C 169.979 237.008,170.481 236.786,170.571 236.516 C 170.698 236.136,173.641 236.024,183.513 236.024 L 196.290 236.024 197.751 234.606 C 198.555 233.826,199.213 232.985,199.213 232.736 C 199.213 232.487,199.390 232.283,199.606 232.283 C 199.828 232.283,200.000 231.179,200.000 229.757 C 200.000 228.090,200.167 227.172,200.492 227.059 C 201.307 226.774,196.961 226.290,196.086 226.568 C 195.449 226.770,195.276 227.156,195.276 228.373 C 195.276 229.225,195.098 229.921,194.882 229.921 C 194.665 229.921,194.488 230.187,194.488 230.512 C 194.488 231.279,195.025 231.249,180.991 231.276 C 172.471 231.292,168.788 231.431,168.589 231.742 C 168.434 231.985,167.730 232.310,167.024 232.463 C 165.368 232.822,163.386 233.813,163.386 234.281 C 163.386 234.481,163.148 234.646,162.857 234.646 C 162.070 234.646,160.236 236.347,160.236 237.077 C 160.236 237.426,159.970 237.813,159.646 237.938 C 157.458 238.777,160.353 246.063,162.875 246.063 C 163.156 246.063,163.386 246.232,163.386 246.439 C 163.386 246.646,164.006 246.931,164.764 247.073 C 165.522 247.215,166.142 247.467,166.142 247.631 C 166.142 247.796,166.886 248.050,167.795 248.195 C 168.705 248.341,169.651 248.627,169.897 248.831 C 170.143 249.036,172.677 249.321,175.527 249.465 C 178.377 249.610,180.709 249.877,180.709 250.061 C 180.709 250.244,183.012 250.394,185.827 250.394 C 188.642 250.394,190.945 250.244,190.945 250.061 C 190.945 249.879,193.636 249.613,196.926 249.470 C 200.216 249.328,203.006 249.061,203.127 248.877 C 203.248 248.694,204.125 248.442,205.076 248.317 C 206.028 248.193,206.914 247.928,207.045 247.728 C 207.176 247.529,208.162 247.248,209.236 247.104 C 210.310 246.960,211.364 246.667,211.579 246.453 C 211.793 246.238,212.287 246.063,212.677 246.063 C 213.067 246.063,213.386 245.906,213.386 245.713 C 213.386 245.521,214.006 245.247,214.764 245.105 C 215.522 244.963,216.142 244.700,216.142 244.521 C 216.142 244.342,216.850 244.082,217.717 243.943 C 218.583 243.805,219.291 243.536,219.291 243.345 C 219.291 243.155,219.734 242.888,220.276 242.752 C 220.817 242.616,221.260 242.345,221.260 242.150 C 221.260 241.955,221.777 241.681,222.408 241.543 C 223.040 241.404,223.654 241.036,223.774 240.724 C 224.056 239.987,224.725 240.011,226.181 240.810 C 227.637 241.608,234.892 241.817,235.352 241.075 C 235.509 240.821,236.093 240.499,236.650 240.360 C 238.334 239.937,241.437 236.662,241.900 234.819 C 242.059 234.187,242.370 233.557,242.592 233.420 C 243.113 233.098,243.154 226.381,242.637 226.043 C 242.423 225.902,242.119 225.265,241.963 224.626 C 241.806 223.988,241.247 223.066,240.721 222.578 C 240.194 222.090,239.764 221.506,239.764 221.279 C 239.764 221.052,239.578 220.866,239.351 220.866 C 239.124 220.866,238.528 220.423,238.027 219.882 C 237.525 219.341,236.751 218.898,236.307 218.898 C 235.862 218.898,235.430 218.691,235.345 218.437 C 235.183 217.951,229.516 217.628,227.379 217.984 M232.677 222.792 C 232.677 222.985,233.117 223.253,233.654 223.388 C 234.669 223.643,237.402 226.119,237.402 226.785 C 237.402 226.994,237.579 227.165,237.795 227.165 C 238.012 227.165,238.189 228.051,238.189 229.134 C 238.189 230.217,238.012 231.102,237.795 231.102 C 237.579 231.102,237.402 231.374,237.402 231.707 C 237.402 232.406,236.370 234.086,235.244 235.222 C 234.224 236.250,228.977 236.695,229.350 235.721 C 229.497 235.338,230.290 235.074,231.627 234.963 C 233.660 234.794,235.433 233.796,235.433 232.819 C 235.433 232.561,235.639 232.280,235.891 232.196 C 237.078 231.801,236.381 227.292,234.897 225.764 C 231.556 222.323,225.984 224.690,225.984 229.551 C 225.984 231.542,225.838 232.255,225.394 232.426 C 225.034 232.564,224.803 232.426,224.803 232.074 C 224.803 231.756,224.626 231.496,224.409 231.496 C 224.193 231.496,224.016 230.787,224.016 229.921 C 224.016 229.055,224.193 228.346,224.409 228.346 C 224.626 228.346,224.803 227.877,224.803 227.304 C 224.803 226.070,226.970 223.785,228.507 223.399 C 229.068 223.258,229.528 222.985,229.528 222.792 C 229.528 222.599,230.236 222.441,231.102 222.441 C 231.969 222.441,232.677 222.599,232.677 222.792 " stroke="none" fill="#043c5c" fill-rule="evenodd"></path></g></svg>