<svg id="svg" version="1.1" xmlns="http://www.w3.org/2000/svg" xmlns:xlink="http://www.w3.org/1999/xlink" width="400" height="393.36349924585215" viewBox="0, 0, 400,393.36349924585215"><g id="svgg"><path id="path0" d="M173.437 139.599 C 164.925 143.732,160.988 150.075,160.588 160.303 C 160.088 173.110,164.549 180.817,177.503 189.528 C 183.609 193.633,183.798 194.000,180.028 194.425 C 175.660 194.917,175.264 195.656,175.264 203.315 C 175.264 211.609,175.209 211.547,183.107 212.183 L 189.140 212.670 188.929 217.807 C 188.677 223.932,189.544 225.555,193.401 226.178 C 196.296 226.646,196.776 228.212,194.796 230.729 L 193.459 232.428 187.680 231.988 C 184.501 231.747,180.950 231.458,179.789 231.347 C 170.222 230.434,159.638 235.180,159.638 240.382 C 159.638 251.930,202.462 252.256,221.798 240.856 C 224.651 239.173,224.965 239.113,226.819 239.893 C 239.863 245.377,248.958 225.963,236.356 219.534 C 227.652 215.094,216.693 223.910,220.176 232.549 C 221.670 236.254,221.650 236.339,218.933 238.054 C 206.292 246.034,174.180 248.090,164.210 241.557 L 162.652 240.536 164.900 238.593 C 168.264 235.685,171.615 234.948,180.090 235.253 C 197.524 235.880,197.824 235.779,199.560 228.662 C 200.012 226.811,200.358 226.508,202.401 226.176 C 205.713 225.638,206.335 224.445,206.335 218.637 C 206.335 211.472,206.053 211.765,212.962 211.765 C 220.388 211.765,220.246 211.930,220.395 203.099 C 220.533 194.973,220.487 194.892,215.454 194.435 C 210.805 194.014,210.822 193.953,216.536 190.495 C 239.325 176.705,242.291 148.404,221.893 139.381 C 212.478 135.216,196.678 140.291,201.077 146.066 C 203.001 148.592,205.226 147.782,210.161 142.757 C 214.476 138.362,225.822 143.894,229.812 152.338 C 235.579 164.540,229.177 178.279,213.111 188.183 C 206.338 192.358,206.335 192.357,206.335 187.376 C 206.335 181.428,205.220 180.392,198.825 180.392 C 189.756 180.392,189.691 180.436,189.160 186.928 C 188.729 192.202,188.872 192.171,182.646 188.344 C 169.260 180.118,164.404 173.023,164.404 161.689 C 164.404 146.613,178.528 135.601,187.488 143.691 C 191.261 147.098,192.067 147.389,193.846 145.990 C 196.273 144.081,193.230 139.511,189.211 139.030 C 188.508 138.946,187.169 138.580,186.235 138.217 C 182.796 136.880,177.962 137.402,173.437 139.599 M201.508 190.739 C 201.926 198.792,202.236 199.095,210.076 199.095 L 216.043 199.095 215.865 203.167 L 215.686 207.240 209.898 207.240 C 202.126 207.240,202.112 207.255,202.112 215.092 C 202.112 221.754,202.044 221.889,198.793 221.707 C 197.798 221.652,196.237 221.564,195.324 221.512 L 193.665 221.418 193.665 215.647 C 193.665 207.449,193.751 207.541,186.102 207.541 L 179.789 207.541 179.789 203.318 L 179.789 199.095 185.520 199.095 C 193.294 199.095,193.665 198.726,193.665 190.987 L 193.665 185.292 195.928 185.043 C 201.385 184.442,201.171 184.223,201.508 190.739 M235.163 223.566 C 241.036 227.679,237.698 237.008,230.582 236.370 L 228.356 236.170 230.166 235.377 C 234.301 233.566,235.029 233.062,235.788 231.484 C 236.757 229.469,235.830 225.970,234.079 225.033 C 230.406 223.068,225.919 225.710,226.079 229.743 C 226.206 232.907,224.722 233.697,224.171 230.759 C 223.055 224.814,230.236 220.115,235.163 223.566 " stroke="none" fill="#000000" fill-rule="evenodd"></path></g></svg>